<svg xmlns="http://www.w3.org/2000/svg" width="31.881" height="31.881" viewBox="0 0 31.881 31.881"><defs><style>.a{fill:#fff;}</style></defs><path class="a" d="M21.254,17.94a5.313,5.313,0,1,0-5.313,5.313A5.324,5.324,0,0,0,21.254,17.94Zm2.864,0A8.177,8.177,0,1,1,15.94,9.763,8.167,8.167,0,0,1,24.118,17.94Zm2.242-8.51a1.909,1.909,0,1,1-1.909-1.909A1.9,1.9,0,0,1,26.36,9.431ZM15.94,4.864c-2.325,0-7.306-.187-9.4.643a5.1,5.1,0,0,0-1.827,1.2,5.08,5.08,0,0,0-1.2,1.827c-.83,2.1-.643,7.078-.643,9.4s-.187,7.306.643,9.4a5.1,5.1,0,0,0,1.2,1.827,5.08,5.08,0,0,0,1.827,1.2c2.1.83,7.078.643,9.4.643s7.306.187,9.4-.643a5.43,5.43,0,0,0,3.03-3.03c.83-2.1.643-7.078.643-9.4s.187-7.306-.643-9.4a5.1,5.1,0,0,0-1.2-1.827,5.08,5.08,0,0,0-1.827-1.2c-2.1-.83-7.078-.643-9.4-.643ZM31.88,17.94c0,2.2.021,4.38-.1,6.579A9.479,9.479,0,0,1,29.2,31.2a9.473,9.473,0,0,1-6.683,2.573c-2.2.125-4.38.1-6.579.1s-4.38.021-6.579-.1A9.479,9.479,0,0,1,2.679,31.2,9.473,9.473,0,0,1,.106,24.52c-.125-2.2-.1-4.38-.1-6.579s-.021-4.38.1-6.579A9.479,9.479,0,0,1,2.679,4.678,9.473,9.473,0,0,1,9.362,2.1c2.2-.125,4.38-.1,6.579-.1s4.38-.021,6.579.1A9.479,9.479,0,0,1,29.2,4.678a9.473,9.473,0,0,1,2.573,6.683C31.9,13.561,31.88,15.741,31.88,17.94Z" transform="translate(-0.001 -2)"/></svg>