<svg xmlns="http://www.w3.org/2000/svg" width="22" height="20.625" viewBox="0 0 22 20.625"><defs><style>.a{fill:#fff;}</style></defs><g transform="translate(0 -2)"><path class="a" d="M12,29a3,3,0,1,1-3-3A3,3,0,0,1,12,29Z" transform="translate(-2.308 -9.375)"/><path class="a" d="M32,29a3,3,0,1,1-3-3A3,3,0,0,1,32,29Z" transform="translate(-10 -9.375)"/><path class="a" d="M22,10.034V3.148H5.5A1.277,1.277,0,0,0,4.125,2H0V3.148H2.75l1.033,7.39A2.176,2.176,0,0,0,2.75,12.33a2.554,2.554,0,0,0,2.75,2.3H22V13.477H5.5A1.277,1.277,0,0,1,4.125,12.33v-.011L22,10.034Z"/></g></svg>