<svg xmlns="http://www.w3.org/2000/svg" width="32.903" height="31.335" viewBox="0 0 32.903 31.335"><defs><style>.a{fill:#fff;}</style></defs><path class="a" d="M26.548,13.5a.864.864,0,0,1,0,1.728H24.142v1.542h2.406a.863.863,0,1,1,0,1.726H23.278a.865.865,0,0,1-.86-.863v-6.54a.866.866,0,0,1,.864-.864h3.271a.864.864,0,0,1,0,1.727H24.142V13.5Zm-5.285,4.134a.864.864,0,0,1-.592.817.881.881,0,0,1-.272.042.849.849,0,0,1-.7-.342L16.351,13.6v4.031a.862.862,0,1,1-1.723,0v-6.54a.859.859,0,0,1,.589-.815.788.788,0,0,1,.266-.045.887.887,0,0,1,.679.349l3.376,4.565V11.1a.864.864,0,1,1,1.727,0Zm-7.871,0a.862.862,0,1,1-1.724,0v-6.54a.862.862,0,1,1,1.724,0Zm-3.381.863H6.741a.869.869,0,0,1-.864-.863v-6.54a.864.864,0,1,1,1.727,0v5.677h2.407a.863.863,0,0,1,0,1.726ZM32.9,14.118C32.9,6.755,25.52.763,16.451.763S0,6.755,0,14.118c0,6.6,5.854,12.122,13.757,13.172.536.112,1.266.354,1.451.809a3.359,3.359,0,0,1,.052,1.481l-.225,1.4c-.062.412-.329,1.626,1.438.884s9.481-5.59,12.936-9.562A11.821,11.821,0,0,0,32.9,14.119Z" transform="translate(0 -0.763)"/></svg>